<svg width="100" height="100" viewBox="0 0 100 100" fill="none" xmlns="http://www.w3.org/2000/svg">
  <circle cx="50" cy="50" r="50" fill="#25D366"/>
  <path d="M72 28.5C66.6 23.1 59.8 20 52.4 20C36.8 20 24.1 32.7 24.1 48.3C24.1 53.6 25.5 58.7 28.2 63.2L24 80L41.5 75.9C45.7 78.2 50.2 79.4 54.9 79.4H55C70.6 79.4 83.3 66.7 83.3 51.1C83.3 43.7 79.9 36.7 74.5 31.3L72 28.5Z" fill="white"/>
  <path d="M68.9 58.6C68.5 58.4 63.1 55.9 61.5 55.3C59.9 54.6 58.7 54.4 57.4 54.6C56.2 54.8 55 56 54.4 57C53.9 57.9 53.5 58.5 52.6 58.2C46.9 56.3 42 51.6 40 48.6C39.7 48.1 39.9 47.5 40.3 47.1C40.6 46.8 41 46.2 41.3 45.7C41.6 45.2 41.7 44.8 41.9 44.3C42.2 43.6 42.1 42.9 41.8 42.3C41.5 41.6 39.4 36.6 38.9 35.4C38.3 34.1 37.6 34.2 37 34.2C36.5 34.2 35.9 34.2 35.2 34.2C34.6 34.2 33.6 34.4 32.8 35.2C32 36 30 37.9 30 41.7C30 45.4 32.8 49.1 33.1 49.5C33.4 49.9 38.1 57 45.9 61C51.5 63.8 55.3 64.6 57.2 64.9C59.1 65.2 61.7 64.5 62.9 63.2C64.1 62 65.4 60.3 65.9 59.2C66.4 58 66.4 57 66.2 56.6C65.9 56.2 65.3 56.1 64.9 55.9C64.5 55.8 68.5 58.8 68.9 58.6Z" fill="#25D366"/>
</svg>
